<svg xmlns="http://www.w3.org/2000/svg" fill="#E9E9E9" stroke="#E9E9E9" stroke-width="0" viewBox="0 0 32 32"><path d="M24.871 18.491c0-2.374-1.605-3.007-4.982-3.453-3.413-.451-3.76-.685-3.76-1.483 0-.66.294-1.541 2.822-1.541 2.258 0 3.09.486 3.433 2.008a.318.318 0 00.309.249h1.426a.324.324 0 00.232-.101h0a.317.317 0 00.085-.217l-.001-.029v.001c-.221-2.622-1.963-3.844-5.483-3.844-3.134 0-5.004 1.322-5.004 3.54 0 2.406 1.859 3.07 4.867 3.368 3.599.352 3.878.878 3.878 1.586 0 1.228-.986 1.752-3.302 1.752-2.908 0-3.548-.73-3.763-2.177a.32.32 0 00-.315-.269h-1.424a.315.315 0 00-.315.315v.001c0 1.852 1.007 4.059 5.817 4.059 3.484.001 5.481-1.369 5.481-3.765zm-8.873 12.505h-.001a2.29 2.29 0 01-1.162-.315l.011.006-3.669-2.171c-.547-.306-.28-.415-.1-.479a7.3 7.3 0 001.691-.773l-.031.018a.279.279 0 01.273.022l-.001-.001 2.819 1.673a.368.368 0 00.342-.001l-.002.001 10.991-6.343a.346.346 0 00.167-.296v-.001 0V9.652a.354.354 0 00-.17-.302l-.002-.001-10.986-6.338a.34.34 0 00-.34.001l.002-.001-10.983 6.34a.356.356 0 00-.174.301v12.684c0 .126.07.235.172.293l.002.001 3.01 1.739c1.633.817 2.634-.145 2.634-1.112V10.734s0 0 0 0c0-.174.141-.316.316-.316h1.398c.175 0 .317.141.318.316v12.523a3.045 3.045 0 01-3.264 3.429l.011.001-.082.001a4.67 4.67 0 01-2.47-.701l.02.012-2.884-1.658a2.32 2.32 0 01-1.152-2.004s0 0 0 0v0V9.653c0-.851.458-1.594 1.141-1.997l.011-.006 10.991-6.351c.333-.186.731-.295 1.155-.295s.821.109 1.167.301l-.012-.006L28.144 7.65a2.322 2.322 0 011.155 2.003v12.684a2.322 2.322 0 01-1.144 1.998l-.011.006-10.989 6.346a2.27 2.27 0 01-1.149.309h-.007 0z"/></svg>