<svg xmlns="http://www.w3.org/2000/svg" fill="#E9E9E9" stroke="#E9E9E9" stroke-width=".005" viewBox="0 0 496 496"><path d="M496 32H288V0h-80v32H0v320h85.472l-40 144h64.608l17.776-64h240.28l17.776 64h64.608l-40-144H496V32zM224 16h48v16h-48V16zM97.92 480h-31.4l35.56-128h31.392L97.92 480zm34.384-64l4.448-16H312v-16H141.192l8.888-32h195.84l8.888 32H328v16h31.256l4.448 16h-231.4zm297.176 64h-31.4l-35.56-128h31.392l35.568 128zM480 336H16V48h464v288z"/><path d="M216 152c0 5.416.52 10.776 1.504 16.04l-33.624-35.864L34.056 298.648l11.888 10.704L184.12 155.824l114.04 121.648 11.672-10.936-56.64-60.416 50.496-50.496 138.36 153.728 11.888-10.704-81.88-90.992C384.944 191.952 392 172.472 392 152c0-48.52-39.48-88-88-88s-88 39.48-88 88zm88-72c39.696 0 72 32.304 72 72 0 15.912-5.24 31.08-14.808 43.584l-56.888-63.208-59.856 59.864C236.408 180.376 232 166.392 232 152c0-39.696 32.304-72 72-72z"/><path d="M376 288h16v16h-16zm-32 0h16v16h-16zm-32 0h16v16h-16z"/></svg>