<svg xmlns="http://www.w3.org/2000/svg" viewBox="0 0 32 32"><path fill="#E9E9E9" d="M21.714 8.571h1.143a.571.571 0 01.571.571.571.571 0 01-.571.571h-1.143a.571.571 0 01-.571-.571.571.571 0 01.571-.571z"/><path fill="#E9E9E9" d="M4.571 26.857h5.714a.571.571 0 01.571.571.571.571 0 01-.571.571H4.571a.571.571 0 01-.571-.57.571.571 0 01.571-.572zm13.715-9.143h3.429a.571.571 0 01.571.571.571.571 0 01-.571.571h-3.429a.571.571 0 01-.571-.571.571.571 0 01.571-.571zm-6.857 0H16a.571.571 0 01.571.571.571.571 0 01-.571.571h-4.571a.571.571 0 01-.571-.571.571.571 0 01.571-.571zm-6.858 0h4.572a.571.571 0 01.571.571.571.571 0 01-.571.571H4.571a.571.571 0 01-.571-.57.571.571 0 01.571-.572zm0 4.572h5.714a.571.571 0 01.571.571.571.571 0 01-.571.571H4.571A.571.571 0 014 22.857a.571.571 0 01.571-.571zm0-9.143h5.714a.571.571 0 01.571.571.571.571 0 01-.571.571H4.571A.571.571 0 014 13.714a.571.571 0 01.571-.571zm5.715-6.857h11.428a.571.571 0 01.571.571.571.571 0 01-.571.571H10.286a.571.571 0 01-.571-.571.571.571 0 01.571-.571zm-5.715 0H8a.571.571 0 01.571.571.571.571 0 01-.571.572H4.571A.571.571 0 014 6.857a.571.571 0 01.571-.571zm4.572 18.285h1.143a.571.571 0 01.571.571.571.571 0 01-.571.571H9.143a.571.571 0 01-.571-.571.571.571 0 01.571-.571zm0-13.714h1.143a.571.571 0 01.571.571.571.571 0 01-.571.571H9.143a.571.571 0 01-.571-.571.571.571 0 01.571-.571zM4.571 24.571h2.286a.571.571 0 01.571.571.571.571 0 01-.571.571H4.571a.571.571 0 01-.571-.57.571.571 0 01.571-.572zm0-13.714h2.286a.571.571 0 01.571.571.571.571 0 01-.571.572H4.571A.571.571 0 014 11.429a.571.571 0 01.571-.572z" data-name="Rectangle"/><path style="isolation:isolate" fill="#6e99c4" d="M19.429 24.571h1.143a.571.571 0 01.571.571.571.571 0 01-.571.571h-1.143a.571.571 0 01-.571-.571.571.571 0 01.571-.571zm-6.858 0h4.571a.571.571 0 01.571.571.571.571 0 01-.571.571h-4.571a.571.571 0 01-.571-.57.571.571 0 01.571-.572zm10.286 0h4.571a.571.571 0 01.571.571.571.571 0 01-.571.571h-4.571a.571.571 0 01-.571-.571.571.571 0 01.571-.571z" data-name="Rectangle" opacity=".5"/><path fill="#E9E9E9" d="M13.714 15.429h9.143a.571.571 0 01.571.571.571.571 0 01-.571.571h-9.143a.571.571 0 01-.571-.571.571.571 0 01.571-.571zm-5.714 0h3.429A.571.571 0 0112 16a.571.571 0 01-.571.571H8A.571.571 0 017.429 16 .571.571 0 018 15.429zm-3.429 0h1.143a.571.571 0 01.572.571.571.571 0 01-.571.571H4.571A.571.571 0 014 16a.571.571 0 01.571-.571zm10.286-6.858h4.571a.571.571 0 01.572.572.571.571 0 01-.571.571h-4.572a.571.571 0 01-.571-.571.571.571 0 01.571-.572zm-10.286 0h8a.571.571 0 01.571.571.571.571 0 01-.571.571h-8A.571.571 0 014 9.143a.571.571 0 01.571-.572zM8 20h10.286a.571.571 0 01.571.571.571.571 0 01-.571.571H8a.571.571 0 01-.571-.571A.571.571 0 018 20zm-3.429 0h1.143a.571.571 0 01.571.571.571.571 0 01-.571.571H4.571A.571.571 0 014 20.571.571.571 0 014.571 20zm13.715-9.143H24a.571.571 0 01.571.571A.571.571 0 0124 12h-5.714a.571.571 0 01-.571-.571.571.571 0 01.571-.572zm0 2.286H24a.571.571 0 01.571.571.571.571 0 01-.571.571h-5.714a.571.571 0 01-.571-.571.571.571 0 01.571-.571zM4.571 4h13.715a.571.571 0 01.571.571.571.571 0 01-.571.571H4.571A.571.571 0 014 4.571.571.571 0 014.571 4z" data-name="Rectangle"/><path style="isolation:isolate" fill="#6e99c4" d="M20.571 4h6.857a.571.571 0 01.572.571.571.571 0 01-.571.571h-6.858A.571.571 0 0120 4.571.571.571 0 0120.571 4zm0 16h2.286a.571.571 0 01.571.571.571.571 0 01-.571.571h-2.286a.571.571 0 01-.571-.571.571.571 0 01.571-.571zm4.572 0h2.286a.571.571 0 01.571.571.571.571 0 01-.571.571h-2.286a.571.571 0 01-.571-.571.571.571 0 01.571-.571zM24 17.714h3.429a.571.571 0 01.571.571.571.571 0 01-.571.571H24a.571.571 0 01-.571-.571.571.571 0 01.571-.571zm0-11.428h3.429a.571.571 0 01.571.571.571.571 0 01-.571.571H24a.571.571 0 01-.571-.571.571.571 0 01.571-.571zm1.143 9.143h2.286A.571.571 0 0128 16a.571.571 0 01-.571.571h-2.286a.571.571 0 01-.572-.571.571.571 0 01.572-.571zm0-6.858h2.286a.571.571 0 01.571.572.571.571 0 01-.571.571h-2.286a.571.571 0 01-.571-.571.571.571 0 01.571-.572zm1.143 2.286h1.143a.571.571 0 01.571.571.571.571 0 01-.571.571h-1.143a.571.571 0 01-.571-.571.571.571 0 01.571-.571zm0 2.286h1.143a.571.571 0 01.571.571.571.571 0 01-.571.571h-1.143a.571.571 0 01-.571-.571.571.571 0 01.571-.571zm-9.143 9.143h10.286a.571.571 0 01.571.571.571.571 0 01-.571.571H17.143a.571.571 0 01-.571-.571.571.571 0 01.571-.571zm-4.572 0h2.286a.571.571 0 01.571.571.571.571 0 01-.571.571h-2.286a.571.571 0 01-.571-.571.571.571 0 01.571-.571zm9.143 4.571h5.714a.571.571 0 01.571.571.571.571 0 01-.571.571h-5.714a.571.571 0 01-.571-.571.571.571 0 01.571-.571zm-9.143 0h6.857a.571.571 0 01.571.571.571.571 0 01-.571.571h-6.857a.571.571 0 01-.571-.57.571.571 0 01.571-.572zm0-16H16a.571.571 0 01.571.571A.571.571 0 0116 12h-3.429a.571.571 0 01-.571-.571.571.571 0 01.571-.572zm0 2.286H16a.571.571 0 01.571.571.571.571 0 01-.571.571h-3.429a.571.571 0 01-.571-.571.571.571 0 01.571-.571z" data-name="Rectangle" opacity=".5"/></svg>