<svg xmlns="http://www.w3.org/2000/svg" fill="#E9E9E9" viewBox="0 0 367.855 367.855"><path d="M340 163.472c-4.924 12.309-11.837 20.095-20.547 23.142-.317.111-.63.207-.941.303.271-2.588.415-5.214.415-7.873v-30h-30v30c0 19.555-12.541 36.227-30 42.42v-32.42h-30v35h-30V185.71c0-13.785 11.215-25 25-25 41.356 0 75-33.645 75-75h-30c0 15.741-8.13 29.611-20.404 37.655-52.565-19.68-54.112-72.267-54.152-74.552L179.372 49l-15 .116c.006.819.267 20.325 10.038 42.645 5.711 13.044 15.438 28.737 31.845 41.878-21.681 7.379-37.328 27.925-37.328 52.07v13.375c-12.544-9.438-28.129-15.041-45-15.041a44.86 44.86 0 01-13.349-2.021 84.695 84.695 0 009.724-7.812c26.839-25.037 30.113-60.203 28.134-85.294l-29.907 2.359c2.076 26.308-3.893 46.524-17.738 60.088-5.496 5.384-11.279 8.711-15.534 10.658a44.714 44.714 0 01-6.33-22.979v-60h-30v44.543c-.176-.058-.35-.107-.527-.17-8.709-3.047-15.622-10.833-20.546-23.142L0 111.417c12.254 30.634 33.605 41.144 50.553 43.15 7.171 33.93 37.341 59.476 73.374 59.476 24.813 0 45 20.186 45 45v4.336c-25.114-2.155-49.543-9.678-71.401-22.114-25.42-14.463-47.01-35.254-62.436-60.126L9.595 196.951c12.621 20.35 28.778 38.355 47.518 53.141-7.542 13.137-21.592 13.909-23.359 13.952l.173-.001v30c1.458 0 31.704-.351 48.141-27.07.209.12.413.248.623.367 23.783 13.531 50.149 22.096 77.333 25.281l-6.097 26.422h60l-15-65h34.968c7.986 16.394 20.866 28.73 37.769 35.975 14.799 6.343 27.527 6.525 28.93 6.525v-30l.118.001c-1.029-.017-20.386-.569-33.655-16.167 17.167-5.58 31.641-17.184 40.897-32.318.977.059 1.983.09 3.018.09 17.596 0 43.044-8.941 56.882-43.534L340 163.472z"/><path d="M340 163.472c-4.924 12.309-11.837 20.095-20.547 23.142-.317.111-.63.207-.941.303.271-2.588.415-5.214.415-7.873v-30h-30v30c0 19.555-12.541 36.227-30 42.42v-32.42h-30v35h-30V185.71c0-13.785 11.215-25 25-25 41.356 0 75-33.645 75-75h-30c0 15.741-8.13 29.611-20.404 37.655-52.565-19.68-54.112-72.267-54.152-74.552l-10.443.131v60.23c5.545 8.338 12.797 16.83 22.328 24.465-8.594 2.924-16.229 7.93-22.328 14.396v171.008h30l-15-65h34.968c7.986 16.394 20.866 28.73 37.769 35.975 14.799 6.343 27.527 6.525 28.93 6.525v-30l.118.001c-1.029-.017-20.386-.569-33.655-16.167 17.167-5.58 31.641-17.184 40.897-32.318.977.059 1.983.09 3.018.09 17.596 0 43.044-8.941 56.882-43.534L340 163.472z"/></svg>