<svg xmlns="http://www.w3.org/2000/svg" fill="#E9E9E9" viewBox="0 0 512.001 512.001"><g fill="none"><path d="M186.591 387.438l-.447-.21c-4.311-2.026-8.583-4.085-11.428-5.507l-1.154-.577-.065-1.288c-1.138-22.331-10.241-34.299-17.554-43.913-3.374-4.444-6.561-8.64-8.499-13.306l-.718-1.728 1.586-.993c26.011-16.307 51.003-17.612 80.971-17.624l2.603-.001-.42 2.57c-2.436 14.891-10.49 29.987-18.278 44.585-6.831 12.785-13.281 24.859-15.528 36.213l-.353 1.781h-10.716v-.002z"/><path d="M229.284 304.5c-2.366 14.464-10.306 29.393-18.047 43.902-6.888 12.894-13.446 25.202-15.746 36.824h-8.405c-4.09-1.923-8.438-4.014-11.379-5.485-1.171-22.99-10.449-35.21-18.002-45.139-3.418-4.501-6.403-8.45-8.217-12.817 25.189-15.791 49.12-17.273 79.796-17.285zm196.83 82.938l-33.764-25.324a6.075 6.075 0 00-2.061-1.005c-36.492-9.857-48.267-55.504-48.752-57.443a5.773 5.773 0 00-.303-.931l-.634-1.514 1.264-1.045c14.954-12.358 26.11-26.522 33.155-42.101l.42-.929.98-.284c4.051-1.174 10-3.259 15.339-6.529l2.354-1.443.895 2.612c3.748 10.944 5.506 35.192 5.306 53.487a6.095 6.095 0 001.397 3.943c13.247 16.042 22.402 34.175 30.48 50.173 4.674 9.249 9.089 17.987 13.719 24.889l2.311 3.444h-22.106z"/><path d="M444.07 385.226h-17.218l-33.175-24.881a8.31 8.31 0 00-2.809-1.37c-35.575-9.61-47.075-55.403-47.186-55.845a7.846 7.846 0 00-.409-1.25c12.219-10.097 25.335-24.263 33.761-42.895 4.202-1.218 10.34-3.374 15.879-6.768 3.494 10.206 5.398 33.496 5.186 52.747a8.295 8.295 0 001.902 5.374c13.049 15.802 22.172 33.84 30.211 49.763 4.801 9.5 9.191 18.169 13.858 25.125z"/></g><g fill="none"><path d="M271.106 387.438a9.005 9.005 0 01-6.38-2.632 8.961 8.961 0 01-2.645-6.381v-20.293a5.987 5.987 0 00-.944-3.241c-36.114-56.99-2.048-97.203-.579-98.888 2.214-2.512 1.976-6.359-.522-8.582a6.09 6.09 0 00-8.587.523c-.441.497-10.829 12.338-16.058 32.356a89.888 89.888 0 00-1.726 8.231l-.386 2.384-2.341-.594a5.991 5.991 0 00-1.481-.198c-41.044 0-72.981 2.654-110.28 37.003-21.945 20.2-56.756 33.77-75.5 33.77a6.088 6.088 0 00-6.082 6.082v20.458h-7.49l-14.679-36.682 14.855-14.855c.7-.7 1.225-1.574 1.518-2.527 12.729-41.576 52.956-153.799 85.783-173.49 12.98-7.791 50.608-18.657 82.399-18.657 7.231 0 13.771.574 19.438 1.709 8.452 1.691 16.434 2.549 23.723 2.549 19.303 0 31.443-5.725 43.185-11.261 10.125-4.768 18.841-8.87 31.596-8.87 9.88 0 17.031 4.753 23.948 9.349 6.216 4.119 12.592 8.345 20.285 8.345 9.647 0 16.48-2.529 22.509-4.762 3.007-1.107 6.112-2.25 9.542-3.034l2.352-.536.332 2.39c.92 6.636 4.231 11.762 4.371 11.977a6.1 6.1 0 005.171 2.834c1.159 0 2.282-.33 3.246-.951 2.83-1.816 3.661-5.575 1.861-8.382-1.151-1.864-3.758-7.508-2.274-11.574.942-2.56 3.586-4.563 7.861-5.955.996-.325 1.881-.484 2.705-.484 1.862 0 3.006.834 3.703 1.46 2.769 2.472 3.946 7.281 3.508 9.376-.828 3.335 1.159 6.647 4.411 7.464a6.056 6.056 0 006.489-2.481l1.074-1.581 1.72.832c31.39 15.179 32.552 29.079 33.322 38.276.122 1.391.23 2.615.405 3.815.288 1.915 1.166 7.753 20.402 19.139l1.522.9-4.918 15.216-1.209.29c-3.954.945-10.972 2.072-21.945 2.072-6.883 0-19.693 0-28.633 8.259l-.636.587h-32.989c-7.168 0-13.396-5.105-14.809-12.138l-3.67-18.359a6.09 6.09 0 00-7.154-4.769 6.036 6.036 0 00-3.87 2.593 6.02 6.02 0 00-.897 4.554l3.673 18.372c1.225 6.133 4.584 11.712 9.453 15.709l2.036 1.672-1.999 1.716c-3.875 3.327-11.743 6.817-19.133 8.486a6.121 6.121 0 00-4.332 3.671c-15.739 39.108-56.917 57.825-58.662 58.603a6.086 6.086 0 00-3.658 4.92l-8.247 74.206h-23.681v.009z"/><path d="M493.744 202.776l-3.992 12.352c-3.605.861-10.461 2.012-21.431 2.012-6.911 0-20.557 0-30.134 8.847h-32.124c-6.115 0-11.434-4.356-12.641-10.361l-3.67-18.358c-.897-4.49-5.264-7.397-9.753-6.502-4.49.896-7.409 5.264-6.502 9.753l3.671 18.367c1.37 6.856 5.087 12.773 10.217 16.986-3.438 2.953-10.881 6.359-18.179 8.006a8.33 8.33 0 00-5.894 4.998c-15.603 38.772-57.116 57.238-57.514 57.415a8.267 8.267 0 00-4.954 6.702l-8.028 72.232h-21.708a6.793 6.793 0 01-4.821-1.99 6.767 6.767 0 01-1.99-4.81v-20.293c0-1.57-.442-3.107-1.294-4.434-35.199-55.545-2.279-94.516-.774-96.241 3.019-3.428 2.698-8.647-.718-11.688-3.429-3.03-8.671-2.72-11.712.708-.452.509-11.191 12.772-16.543 33.263a92.774 92.774 0 00-1.769 8.438 8.228 8.228 0 00-2.024-.265c-41.546 0-73.892 2.698-111.778 37.587-21.564 19.85-55.679 33.186-74.002 33.186a8.297 8.297 0 00-8.294 8.294v18.246h-3.782l-13.58-33.937 13.823-13.823a8.325 8.325 0 002.068-3.439C46.58 292.67 86.5 181.112 118.724 161.782c16.123-9.676 68.317-23.068 100.266-16.676 34.712 6.945 52.549-1.46 68.285-8.88 9.864-4.643 18.379-8.659 30.654-8.659 9.201 0 15.769 4.357 22.725 8.979 6.458 4.28 13.126 8.714 21.508 8.714 10.008 0 17.063-2.599 23.278-4.899 3.153-1.161 6.071-2.223 9.267-2.953.941 6.779 4.169 12.054 4.712 12.883a8.327 8.327 0 007.022 3.837c1.526 0 3.074-.42 4.445-1.305 3.859-2.477 4.999-7.576 2.521-11.435-1.139-1.847-3.152-6.623-2.056-9.62.861-2.344 3.991-3.804 6.469-4.611 2.477-.807 3.494-.156 4.246.52 2.267 2.024 3.074 6.059 2.82 7.276a8.307 8.307 0 006.038 10.063 8.287 8.287 0 008.859-3.384c30.21 14.608 31.339 27.613 32.08 36.469.121 1.371.232 2.654.42 3.948.372 2.502 1.301 8.795 21.461 20.727z"/></g><path d="M507.677 191.617c3.494 1.903 5.142 6.039 3.926 9.832l-7.376 22.847a8.283 8.283 0 01-4.324 4.943c-1.581.752-10.505 4.49-31.583 4.49-5.806 0-15.526 0-20.038 5.706a8.275 8.275 0 01-6.502 3.141h-35.01c7.221 15.504 7.929 47.696 7.929 59.56 13.226 16.654 22.67 35.342 30.322 50.492 8.106 16.023 16.488 32.599 23.3 32.599h8.847a8.297 8.297 0 018.294 8.294 8.29 8.29 0 01-8.294 8.294h-53.08a8.25 8.25 0 01-4.976-1.659l-34.159-25.61c-36.216-10.738-51.389-48.249-55.878-62.281a144.044 144.044 0 01-12.253 7.122l-7.321 65.841h8.426a8.297 8.297 0 018.294 8.294 8.29 8.29 0 01-8.294 8.294h-46.821c-6.248 0-12.131-2.432-16.543-6.844-4.423-4.423-6.856-10.296-6.856-16.543v-17.915c-5.164-8.449-8.946-16.599-11.633-24.35-3.207 6.934-6.791 13.646-10.207 20.049-5.584 10.472-10.937 20.513-13.336 29.016h16.93a8.297 8.297 0 018.294 8.294 8.29 8.29 0 01-8.294 8.294h-44.233a8.193 8.193 0 01-3.517-.785s-4.48-2.09-8.946-4.257a322.76 322.76 0 01-6.271-3.107c-3.229-1.671-7.254-3.739-7.254-8.992 0-20.634-7.166-30.057-14.741-40.042-3.063-4.025-6.193-8.172-8.67-12.949a169.4 169.4 0 00-6.911 6.016c-17.717 16.311-50.537 33.794-76.944 37.045v10.482h.553a8.297 8.297 0 018.294 8.294 8.29 8.29 0 01-8.294 8.294h-26.54a8.277 8.277 0 01-7.697-5.208L.596 352.371a8.282 8.282 0 011.836-8.946l16.244-16.244c2.644-8.405 13.481-42.099 28.11-77.741 23.068-56.208 44.399-90.489 63.397-101.892 20.702-12.417 76.879-25.744 112.054-18.711 29.349 5.872 43.249-.686 57.968-7.619 10.682-5.033 21.73-10.241 37.72-10.241 14.21 0 24.019 6.514 31.892 11.744 4.811 3.197 8.968 5.949 12.341 5.949 7.044 0 11.91-1.79 17.538-3.87 5.417-2.002 11.455-4.223 19.572-4.82 2.654-3.251 6.835-6.447 13.392-8.593 7.764-2.532 15.14-1.028 20.779 4.224 2.3 2.134 4.058 4.677 5.352 7.365 46.721 19.927 48.59 41.878 49.598 53.721.055.686.111 1.315.165 1.88 2.292 2.667 10.829 8.517 19.123 13.04zm-17.925 23.511l3.992-12.352c-20.159-11.932-21.088-18.224-21.464-20.723-.188-1.294-.3-2.577-.42-3.948-.741-8.858-1.869-21.862-32.08-36.469a8.288 8.288 0 01-8.859 3.384 8.307 8.307 0 01-6.038-10.063c.254-1.218-.553-5.253-2.82-7.276-.752-.675-1.769-1.327-4.246-.52-2.477.806-5.607 2.267-6.469 4.611-1.095 2.997.917 7.773 2.056 9.62 2.477 3.859 1.338 8.958-2.521 11.435a8.175 8.175 0 01-4.445 1.305 8.327 8.327 0 01-7.022-3.837c-.542-.829-3.771-6.104-4.712-12.883-3.196.73-6.114 1.791-9.267 2.953-6.215 2.3-13.27 4.899-23.278 4.899-8.382 0-15.05-4.434-21.508-8.714-6.956-4.622-13.523-8.979-22.725-8.979-12.275 0-20.79 4.015-30.654 8.659-15.736 7.42-33.573 15.824-68.285 8.88-31.949-6.392-84.143 7-100.266 16.676-32.225 19.33-72.145 130.887-84.806 172.245a8.325 8.325 0 01-2.068 3.439l-13.825 13.82 13.58 33.937h3.782v-18.246a8.297 8.297 0 018.294-8.294c18.324 0 52.439-13.336 74.002-33.186 37.886-34.889 70.232-37.587 111.778-37.587.697 0 1.371.101 2.024.265a92.1 92.1 0 011.769-8.438c5.352-20.491 16.091-32.755 16.543-33.263 3.041-3.428 8.283-3.738 11.712-.708 3.417 3.041 3.738 8.261.718 11.688-1.504 1.725-34.425 40.696.774 96.241a8.193 8.193 0 011.294 4.434v20.293c0 1.814.708 3.526 1.991 4.81a6.792 6.792 0 004.821 1.99h21.708l8.028-72.232a8.267 8.267 0 014.954-6.702c.397-.177 41.91-18.643 57.514-57.415a8.331 8.331 0 015.894-4.998c7.299-1.648 14.741-5.054 18.179-8.006-5.131-4.212-8.847-10.129-10.217-16.986l-3.671-18.367c-.907-4.491 2.013-8.859 6.502-9.753 4.49-.896 8.858 2.013 9.753 6.502l3.67 18.358c1.206 6.005 6.524 10.361 12.641 10.361h32.124c9.577-8.847 23.223-8.847 30.134-8.847 10.973-.002 17.83-1.152 21.435-2.013zm-62.9 170.098h17.218c-4.668-6.956-9.057-15.625-13.856-25.125-8.041-15.923-17.164-33.96-30.211-49.763a8.302 8.302 0 01-1.902-5.374c.21-19.251-1.692-42.541-5.186-52.747-5.54 3.394-11.678 5.551-15.879 6.768-8.426 18.633-21.542 32.798-33.761 42.895.166.397.31.817.409 1.25.111.441 11.611 46.235 47.186 55.845a8.328 8.328 0 012.809 1.37l33.173 24.881zm-215.617-36.824c7.741-14.509 15.682-29.437 18.047-43.902-30.676.012-54.606 1.494-79.797 17.285 1.815 4.367 4.799 8.316 8.217 12.817 7.553 9.93 16.831 22.149 18.002 45.139 2.942 1.471 7.289 3.562 11.379 5.485h8.405c2.301-11.622 8.859-23.93 15.747-36.824z"/></svg>